<svg width="235" height="61" viewBox="0 0 235 61" fill="none" xmlns="http://www.w3.org/2000/svg">
<path d="M64 7.92308L72.3333 2L94 16" stroke="white" stroke-width="3"/>
<path d="M59 20L72 10L87 19" stroke="white" stroke-width="3"/>
<path d="M42 19L56.6286 9L61 12.3333" stroke="white" stroke-width="3"/>
<path d="M44.0641 57.5424C39.3639 55.0386 36.668 49.6713 36.668 42.7927V38.8594C36.6697 38.1297 36.4701 37.4164 36.0951 36.8126C35.7201 36.2087 35.1871 35.7425 34.5658 35.4747L29.3761 33.2304C28.9678 33.0519 28.6405 32.7044 28.4657 32.2636C28.2909 31.8227 28.2826 31.3243 28.4427 30.8768L32.8845 18.8129C33.186 18.0211 33.3381 17.171 33.3317 16.3135C33.3253 15.4559 33.1606 14.6086 32.8474 13.8223C32.5342 13.0359 32.079 12.3267 31.509 11.7371C30.939 11.1476 30.266 10.6897 29.5302 10.391C28.0971 9.81732 26.5158 9.87684 25.1222 10.5569C23.7286 11.237 22.6328 12.484 22.0675 14.0329C22.0667 14.042 22.0667 14.0511 22.0675 14.0602L17.6882 26.1742C17.5253 26.6223 17.2063 26.9816 16.8013 27.1732C16.3963 27.3648 15.9383 27.3731 15.5277 27.1962L10.2316 24.8403C9.62104 24.57 8.95048 24.5049 8.3058 24.6533C7.66112 24.8017 7.07163 25.1569 6.61277 25.6734C2.22512 30.6014 4.2606e-05 36.3601 4.2606e-05 42.7904C-0.0114879 49.3707 2.31777 55.6984 6.4961 60.4378C6.65265 60.6166 6.8409 60.7586 7.04938 60.8553C7.25785 60.9519 7.48217 61.0012 7.70864 61H43.3349C43.7116 60.9996 44.0771 60.8598 44.3717 60.6033C44.6664 60.3469 44.8729 59.989 44.9574 59.5879C45.042 59.1868 44.9998 58.7663 44.8375 58.3948C44.6753 58.0233 44.4026 57.7229 44.0641 57.5424ZM8.98785 28.2227L14.2818 30.5672C14.8929 30.8343 15.5462 30.967 16.2043 30.9576C16.8624 30.9482 17.5124 30.7969 18.1169 30.5125C18.7214 30.2281 19.2685 29.8161 19.7269 29.3001C20.1854 28.7841 20.546 28.1743 20.7883 27.5057L25.1634 15.4419C25.6968 14.0511 27.1364 13.3318 28.3781 13.8485C28.6947 13.9769 28.9842 14.1739 29.2291 14.4278C29.4741 14.6817 29.6694 14.9872 29.8034 15.3258C29.9373 15.6645 30.0071 16.0292 30.0085 16.3981C30.0099 16.767 29.9429 17.1324 29.8115 17.4723L25.353 29.5338C24.8649 30.8792 24.8854 32.3813 25.41 33.7102C25.9345 35.0392 26.9204 36.0863 28.151 36.6219L33.3345 38.8594V42.7904C33.3345 42.8655 33.3345 42.9406 33.3345 43.018L6.61902 31.3434C7.32927 30.2342 8.12153 29.1905 8.98785 28.2227ZM18.9882 57.3581C16.5067 54.7575 14.7487 51.4433 13.9172 47.798C13.8013 47.337 13.5241 46.9442 13.1454 46.7046C12.7667 46.4649 12.317 46.3976 11.8932 46.5171C11.4695 46.6367 11.1058 46.9335 10.8807 47.3435C10.6556 47.7535 10.5871 48.2438 10.69 48.7085C11.417 51.8445 12.7182 54.7869 14.5151 57.3581H8.42533C5.1381 53.3568 3.3241 48.167 3.33349 42.7904C3.3131 39.9417 3.86275 37.1225 4.94396 34.5301L33.6533 47.0765C34.2783 51.1736 35.8534 54.6972 38.2139 57.3558L18.9882 57.3581Z" fill="white"/>
<path d="M107.488 32.238C107.38 32.418 107.26 32.556 107.128 32.652C107.008 32.736 106.858 32.778 106.678 32.778C106.474 32.778 106.234 32.676 105.958 32.472C105.682 32.268 105.334 32.046 104.914 31.806C104.506 31.554 104.008 31.326 103.42 31.122C102.844 30.918 102.142 30.816 101.314 30.816C100.534 30.816 99.844 30.924 99.244 31.14C98.656 31.344 98.158 31.626 97.75 31.986C97.354 32.346 97.054 32.772 96.85 33.264C96.646 33.744 96.544 34.266 96.544 34.83C96.544 35.55 96.718 36.15 97.066 36.63C97.426 37.098 97.894 37.5 98.47 37.836C99.058 38.172 99.718 38.466 100.45 38.718C101.194 38.958 101.95 39.21 102.718 39.474C103.498 39.738 104.254 40.038 104.986 40.374C105.73 40.698 106.39 41.112 106.966 41.616C107.554 42.12 108.022 42.738 108.37 43.47C108.73 44.202 108.91 45.102 108.91 46.17C108.91 47.298 108.718 48.36 108.334 49.356C107.95 50.34 107.386 51.198 106.642 51.93C105.91 52.662 105.004 53.238 103.924 53.658C102.856 54.078 101.638 54.288 100.27 54.288C98.59 54.288 97.066 53.988 95.698 53.388C94.33 52.776 93.16 51.954 92.188 50.922L93.196 49.266C93.292 49.134 93.406 49.026 93.538 48.942C93.682 48.846 93.838 48.798 94.006 48.798C94.162 48.798 94.336 48.864 94.528 48.996C94.732 49.116 94.96 49.272 95.212 49.464C95.464 49.656 95.752 49.866 96.076 50.094C96.4 50.322 96.766 50.532 97.174 50.724C97.594 50.916 98.068 51.078 98.596 51.21C99.124 51.33 99.718 51.39 100.378 51.39C101.206 51.39 101.944 51.276 102.592 51.048C103.24 50.82 103.786 50.502 104.23 50.094C104.686 49.674 105.034 49.176 105.274 48.6C105.514 48.024 105.634 47.382 105.634 46.674C105.634 45.894 105.454 45.258 105.094 44.766C104.746 44.262 104.284 43.842 103.708 43.506C103.132 43.17 102.472 42.888 101.728 42.66C100.984 42.42 100.228 42.18 99.46 41.94C98.692 41.688 97.936 41.4 97.192 41.076C96.448 40.752 95.788 40.332 95.212 39.816C94.636 39.3 94.168 38.658 93.808 37.89C93.46 37.11 93.286 36.15 93.286 35.01C93.286 34.098 93.46 33.216 93.808 32.364C94.168 31.512 94.684 30.756 95.356 30.096C96.04 29.436 96.874 28.908 97.858 28.512C98.854 28.116 99.994 27.918 101.278 27.918C102.718 27.918 104.026 28.146 105.202 28.602C106.39 29.058 107.434 29.718 108.334 30.582L107.488 32.238ZM122.721 45.792C121.245 45.84 119.985 45.96 118.941 46.152C117.909 46.332 117.063 46.572 116.403 46.872C115.755 47.172 115.281 47.526 114.981 47.934C114.693 48.342 114.549 48.798 114.549 49.302C114.549 49.782 114.627 50.196 114.783 50.544C114.939 50.892 115.149 51.18 115.413 51.408C115.689 51.624 116.007 51.786 116.367 51.894C116.739 51.99 117.135 52.038 117.555 52.038C118.119 52.038 118.635 51.984 119.103 51.876C119.571 51.756 120.009 51.588 120.417 51.372C120.837 51.156 121.233 50.898 121.605 50.598C121.989 50.298 122.361 49.956 122.721 49.572V45.792ZM112.371 38.34C113.379 37.368 114.465 36.642 115.629 36.162C116.793 35.682 118.083 35.442 119.499 35.442C120.519 35.442 121.425 35.61 122.217 35.946C123.009 36.282 123.675 36.75 124.215 37.35C124.755 37.95 125.163 38.676 125.439 39.528C125.715 40.38 125.853 41.316 125.853 42.336V54H124.431C124.119 54 123.879 53.952 123.711 53.856C123.543 53.748 123.411 53.544 123.315 53.244L122.955 51.516C122.475 51.96 122.007 52.356 121.551 52.704C121.095 53.04 120.615 53.328 120.111 53.568C119.607 53.796 119.067 53.97 118.491 54.09C117.927 54.222 117.297 54.288 116.601 54.288C115.893 54.288 115.227 54.192 114.603 54C113.979 53.796 113.433 53.496 112.965 53.1C112.509 52.704 112.143 52.206 111.867 51.606C111.603 50.994 111.471 50.274 111.471 49.446C111.471 48.726 111.669 48.036 112.065 47.376C112.461 46.704 113.103 46.11 113.991 45.594C114.879 45.078 116.037 44.658 117.465 44.334C118.893 43.998 120.645 43.806 122.721 43.758V42.336C122.721 40.92 122.415 39.852 121.803 39.132C121.191 38.4 120.297 38.034 119.121 38.034C118.329 38.034 117.663 38.136 117.123 38.34C116.595 38.532 116.133 38.754 115.737 39.006C115.353 39.246 115.017 39.468 114.729 39.672C114.453 39.864 114.177 39.96 113.901 39.96C113.685 39.96 113.499 39.906 113.343 39.798C113.187 39.678 113.055 39.534 112.947 39.366L112.371 38.34ZM133.955 38.196C134.735 37.368 135.599 36.708 136.547 36.216C137.495 35.724 138.587 35.478 139.823 35.478C140.819 35.478 141.695 35.646 142.451 35.982C143.219 36.306 143.855 36.774 144.359 37.386C144.875 37.986 145.265 38.712 145.529 39.564C145.793 40.416 145.925 41.358 145.925 42.39V54H142.703V42.39C142.703 41.01 142.385 39.942 141.749 39.186C141.125 38.418 140.171 38.034 138.887 38.034C137.939 38.034 137.051 38.262 136.223 38.718C135.407 39.174 134.651 39.792 133.955 40.572V54H130.733V27.486H133.955V38.196ZM160.69 45.792C159.214 45.84 157.954 45.96 156.91 46.152C155.878 46.332 155.032 46.572 154.372 46.872C153.724 47.172 153.25 47.526 152.95 47.934C152.662 48.342 152.518 48.798 152.518 49.302C152.518 49.782 152.596 50.196 152.752 50.544C152.908 50.892 153.118 51.18 153.382 51.408C153.658 51.624 153.976 51.786 154.336 51.894C154.708 51.99 155.104 52.038 155.524 52.038C156.088 52.038 156.604 51.984 157.072 51.876C157.54 51.756 157.978 51.588 158.386 51.372C158.806 51.156 159.202 50.898 159.574 50.598C159.958 50.298 160.33 49.956 160.69 49.572V45.792ZM150.34 38.34C151.348 37.368 152.434 36.642 153.598 36.162C154.762 35.682 156.052 35.442 157.468 35.442C158.488 35.442 159.394 35.61 160.186 35.946C160.978 36.282 161.644 36.75 162.184 37.35C162.724 37.95 163.132 38.676 163.408 39.528C163.684 40.38 163.822 41.316 163.822 42.336V54H162.4C162.088 54 161.848 53.952 161.68 53.856C161.512 53.748 161.38 53.544 161.284 53.244L160.924 51.516C160.444 51.96 159.976 52.356 159.52 52.704C159.064 53.04 158.584 53.328 158.08 53.568C157.576 53.796 157.036 53.97 156.46 54.09C155.896 54.222 155.266 54.288 154.57 54.288C153.862 54.288 153.196 54.192 152.572 54C151.948 53.796 151.402 53.496 150.934 53.1C150.478 52.704 150.112 52.206 149.836 51.606C149.572 50.994 149.44 50.274 149.44 49.446C149.44 48.726 149.638 48.036 150.034 47.376C150.43 46.704 151.072 46.11 151.96 45.594C152.848 45.078 154.006 44.658 155.434 44.334C156.862 43.998 158.614 43.806 160.69 43.758V42.336C160.69 40.92 160.384 39.852 159.772 39.132C159.16 38.4 158.266 38.034 157.09 38.034C156.298 38.034 155.632 38.136 155.092 38.34C154.564 38.532 154.102 38.754 153.706 39.006C153.322 39.246 152.986 39.468 152.698 39.672C152.422 39.864 152.146 39.96 151.87 39.96C151.654 39.96 151.468 39.906 151.312 39.798C151.156 39.678 151.024 39.534 150.916 39.366L150.34 38.34ZM184.012 35.766L173.842 59.382C173.734 59.622 173.596 59.814 173.428 59.958C173.272 60.102 173.026 60.174 172.69 60.174H170.314L173.644 52.938L166.12 35.766H168.892C169.168 35.766 169.384 35.838 169.54 35.982C169.708 36.114 169.822 36.264 169.882 36.432L174.76 47.916C174.952 48.42 175.114 48.948 175.246 49.5C175.414 48.936 175.594 48.402 175.786 47.898L180.52 36.432C180.592 36.24 180.712 36.084 180.88 35.964C181.06 35.832 181.258 35.766 181.474 35.766H184.012ZM194.037 35.478C195.369 35.478 196.569 35.7 197.637 36.144C198.705 36.588 199.617 37.218 200.373 38.034C201.129 38.85 201.705 39.84 202.101 41.004C202.509 42.156 202.713 43.446 202.713 44.874C202.713 46.314 202.509 47.61 202.101 48.762C201.705 49.914 201.129 50.898 200.373 51.714C199.617 52.53 198.705 53.16 197.637 53.604C196.569 54.036 195.369 54.252 194.037 54.252C192.693 54.252 191.481 54.036 190.401 53.604C189.333 53.16 188.421 52.53 187.665 51.714C186.909 50.898 186.327 49.914 185.919 48.762C185.523 47.61 185.325 46.314 185.325 44.874C185.325 43.446 185.523 42.156 185.919 41.004C186.327 39.84 186.909 38.85 187.665 38.034C188.421 37.218 189.333 36.588 190.401 36.144C191.481 35.7 192.693 35.478 194.037 35.478ZM194.037 51.75C195.837 51.75 197.181 51.15 198.069 49.95C198.957 48.738 199.401 47.052 199.401 44.892C199.401 42.72 198.957 41.028 198.069 39.816C197.181 38.604 195.837 37.998 194.037 37.998C193.125 37.998 192.327 38.154 191.643 38.466C190.971 38.778 190.407 39.228 189.951 39.816C189.507 40.404 189.171 41.13 188.943 41.994C188.727 42.846 188.619 43.812 188.619 44.892C188.619 47.052 189.063 48.738 189.951 49.95C190.851 51.15 192.213 51.75 194.037 51.75ZM213.025 45.09C213.673 45.09 214.243 45 214.735 44.82C215.227 44.64 215.641 44.388 215.977 44.064C216.313 43.74 216.565 43.356 216.733 42.912C216.901 42.456 216.985 41.958 216.985 41.418C216.985 40.302 216.643 39.414 215.959 38.754C215.287 38.094 214.309 37.764 213.025 37.764C211.729 37.764 210.739 38.094 210.055 38.754C209.383 39.414 209.047 40.302 209.047 41.418C209.047 41.958 209.131 42.456 209.299 42.912C209.479 43.356 209.737 43.74 210.073 44.064C210.409 44.388 210.823 44.64 211.315 44.82C211.807 45 212.377 45.09 213.025 45.09ZM218.803 54.99C218.803 54.546 218.677 54.186 218.425 53.91C218.173 53.634 217.831 53.418 217.399 53.262C216.979 53.106 216.487 52.998 215.923 52.938C215.359 52.866 214.759 52.812 214.123 52.776C213.499 52.74 212.863 52.704 212.215 52.668C211.567 52.632 210.943 52.572 210.343 52.488C209.671 52.8 209.119 53.196 208.687 53.676C208.267 54.144 208.057 54.696 208.057 55.332C208.057 55.74 208.159 56.118 208.363 56.466C208.579 56.826 208.903 57.132 209.335 57.384C209.767 57.648 210.307 57.852 210.955 57.996C211.615 58.152 212.389 58.23 213.277 58.23C214.141 58.23 214.915 58.152 215.599 57.996C216.283 57.84 216.859 57.618 217.327 57.33C217.807 57.042 218.173 56.7 218.425 56.304C218.677 55.908 218.803 55.47 218.803 54.99ZM222.061 36.486V37.674C222.061 38.07 221.809 38.322 221.305 38.43L219.235 38.7C219.643 39.492 219.847 40.368 219.847 41.328C219.847 42.216 219.673 43.026 219.325 43.758C218.989 44.478 218.521 45.096 217.921 45.612C217.321 46.128 216.601 46.524 215.761 46.8C214.921 47.076 214.009 47.214 213.025 47.214C212.173 47.214 211.369 47.112 210.613 46.908C210.229 47.148 209.935 47.406 209.731 47.682C209.527 47.946 209.425 48.216 209.425 48.492C209.425 48.924 209.599 49.254 209.947 49.482C210.307 49.698 210.775 49.854 211.351 49.95C211.927 50.046 212.581 50.106 213.313 50.13C214.057 50.154 214.813 50.196 215.581 50.256C216.361 50.304 217.117 50.394 217.849 50.526C218.593 50.658 219.253 50.874 219.829 51.174C220.405 51.474 220.867 51.888 221.215 52.416C221.575 52.944 221.755 53.628 221.755 54.468C221.755 55.248 221.557 56.004 221.161 56.736C220.777 57.468 220.219 58.116 219.487 58.68C218.755 59.256 217.855 59.712 216.787 60.048C215.731 60.396 214.537 60.57 213.205 60.57C211.873 60.57 210.709 60.438 209.713 60.174C208.717 59.91 207.889 59.556 207.229 59.112C206.569 58.668 206.071 58.152 205.735 57.564C205.411 56.988 205.249 56.382 205.249 55.746C205.249 54.846 205.531 54.084 206.095 53.46C206.659 52.836 207.433 52.338 208.417 51.966C207.877 51.726 207.445 51.408 207.121 51.012C206.809 50.604 206.653 50.058 206.653 49.374C206.653 49.11 206.701 48.84 206.797 48.564C206.893 48.276 207.037 47.994 207.229 47.718C207.433 47.43 207.679 47.16 207.967 46.908C208.255 46.656 208.591 46.434 208.975 46.242C208.075 45.738 207.373 45.072 206.869 44.244C206.365 43.404 206.113 42.432 206.113 41.328C206.113 40.44 206.281 39.636 206.617 38.916C206.965 38.184 207.445 37.566 208.057 37.062C208.669 36.546 209.395 36.15 210.235 35.874C211.087 35.598 212.017 35.46 213.025 35.46C213.817 35.46 214.555 35.55 215.239 35.73C215.923 35.898 216.547 36.15 217.111 36.486H222.061Z" fill="white"/>
<path d="M69.04 30.552H64.096V57H60.208V49.704C58.384 50.904 55.888 51.624 52.96 51.624C47.296 51.624 43.36 48.6 43.36 44.04C43.36 42.216 43.984 40.296 45.76 38.952C43.696 37.752 42.4 35.928 42.4 33.72C42.4 32.472 42.736 31.464 43.36 30.552H40V27.144H69.04V30.552ZM47.248 44.232C47.248 46.92 49.504 48.216 52.96 48.216C55.792 48.216 58.48 46.92 60.208 45.096V30.552H47.68C46.768 31.368 46.288 32.424 46.288 33.72C46.288 35.4 47.344 36.648 48.88 37.272C50.08 36.984 51.472 36.84 52.576 36.84C53.488 36.84 54.304 36.888 55.024 36.984L54.736 40.392C53.968 40.296 53.392 40.296 52.72 40.296C49.072 40.296 47.248 41.736 47.248 44.232ZM86.4554 54.984L83.6714 57.576C78.6314 53.016 75.0794 49.32 72.5834 45.768C70.9994 43.512 70.3754 41.976 70.3754 40.536C70.3754 39.048 71.2874 38.088 72.9194 38.088C74.3114 38.088 75.6074 38.904 76.8554 40.344C79.4954 39.096 80.6474 37.128 80.6474 34.536C80.6474 33.096 80.3114 31.512 79.8314 30.552H68.3594V27.144H88.7114V30.552H83.8154C84.2954 31.896 84.4874 33.288 84.4874 35.016C84.4874 40.2 81.1754 42.984 76.2314 45.096C78.8714 48.216 82.6634 51.768 86.4554 54.984Z" fill="white"/>
<path d="M84 55L85.705 57.728C86.1996 58.5193 87.0669 59 88 59V59V59C90.5967 59 92.8129 57.1226 93.2398 54.5612L94 50" stroke="white"/>
</svg>
